# xmcd CD database file
#
# Track frame offsets:
#	150
#	14640
#	34540
#	55747
#	76722
#	93560
#	121560
#	144230
#	172305
#	199202
#	216757
#	242622
#	259462
#	284362
#	305900
#
# Disc length: 4663 seconds
#
# Revision: 0
# Processed by: cddbd v1.5PL3 Copyright (c) Steve Scherf et al.
# Submitted via: CDex 1.51
#
DISCID=d612350f
DTITLE=Milt Jackson - Ballads and Blues/Bags and Flutes
DYEAR=1958
DGENRE=Jazz
TTITLE0=So In Love
TTITLE1=These Foolish Things
TTITLE2=Solitude
TTITLE3=The Song Is Ended
TTITLE4=They Didn't Believe Me
TTITLE5=How High The Moon
TTITLE6=Gerry's Blues
TTITLE7=Bright Blues
TTITLE8=Bags' New Groove
TTITLE9=Sandy
TTITLE10=Midget Rod
TTITLE11=I'm Afraid The Masquerade Is Over
TTITLE12=Ghana
TTITLE13=Sweet and Lovely
TTITLE14=Connie's Blues
EXTD=YEAR: 1958
EXTT0=
EXTT1=
EXTT2=
EXTT3=
EXTT4=
EXTT5=
EXTT6=
EXTT7=
EXTT8=
EXTT9=
EXTT10=
EXTT11=
EXTT12=
EXTT13=
EXTT14=
PLAYORDER=
